<?xml version="1.0" encoding="UTF-8"?>
<svg id="Layer_1" xmlns="http://www.w3.org/2000/svg" version="1.1" viewBox="0 0 530 530">
  <!-- Generator: Adobe Illustrator 29.3.1, SVG Export Plug-In . SVG Version: 2.1.0 Build 151)  -->
  <defs>
    <style>
      .st0 {
        fill: #fff;
      }
    </style>
  </defs>
  <path d="M140.37,198.57l.49,4.99c14.48-13.42,39.67-7.75,47.91,9.98,15.09-22.08,50.58-23.17,67.39-2.5,1.29,1.59,1.34,4.09,2.99,4.5v-16.97h22.96v4.99c16.45-13.73,42.31-7.84,49.68,12.7,12.08,33.66-19.77,61.87-49.68,41.2v36.93h-22.96v-47.91c-16.18,23.68-53.52,24.21-70.37,1.02-9.22,17.59-33.08,22.68-48.41,9.96v36.93h-22.96v-95.82h22.96ZM167.88,230.16c0-7.67-6.22-13.9-13.9-13.9s-13.9,6.22-13.9,13.9,6.22,13.9,13.9,13.9,13.9-6.22,13.9-13.9ZM237.54,230.26c0-7.67-6.22-13.89-13.89-13.89s-13.89,6.22-13.89,13.89,6.22,13.89,13.89,13.89,13.89-6.22,13.89-13.89ZM291.81,216.77c-15.25,3.14-11.45,29.43,5.49,27.53,17.57-1.97,16.25-32.01-5.49-27.53Z"/>
  <path d="M352.96,359.27v34.43l-1.5,1.5h-21.46v-95.82h22.96v4.99c16.6-14.35,44.4-6.2,50.42,14.95,9.34,32.81-21.03,58.41-50.42,39.94ZM380.27,331.14c0-7.68-6.22-13.9-13.9-13.9s-13.9,6.22-13.9,13.9,6.22,13.9,13.9,13.9,13.9-6.22,13.9-13.9Z"/>
  <path d="M306.05,299.38h22.96v44.42c0,1.57-3.36,9.73-4.56,11.41-10.62,14.91-55.88,14.71-62.79-5.95-.83-2.49-2.52-10.21-2.52-12.45v-35.93l1.5-1.5h20.96l1.5,1.5v35.93c0,1.36,3.02,6.46,4.47,7.5,7.09,5.1,18.48-.16,18.48-8.5v-36.43Z"/>
  <path class="st0" d="M153.98,244.06c-7.67,0-13.9-6.22-13.9-13.9s6.22-13.9,13.9-13.9"/>
</svg>